#N canvas 720 22 720 851 10;
#X obj 22 52 osc~ 300;
#X obj 22 128 dac~;
#X msg 145 58 \; pd dsp \$1;
#X obj 145 22 tgl 15 0 empty empty empty 17 7 0 10 -262144 -1 -1 0
1;
#X obj 92 52 osc~ 5;
#X obj 22 22 inlet~;
#X obj 92 22 inlet~;
#X obj 22 90 multy64~;
#X connect 0 0 7 0;
#X connect 3 0 2 0;
#X connect 4 0 7 1;
#X connect 7 0 1 0;
#X connect 7 0 1 1;
