#N canvas 720 22 720 851 10;
#X msg 295 58 \; pd dsp \$1;
#X obj 295 22 tgl 15 0 empty empty empty 17 7 0 10 -262144 -1 -1 1
1;
#X obj 52 172 vdelay~ 13 1 0.3;
#X floatatom 232 22 5 0 0 0 - - -, f 5;
#X obj 122 112 *~ 6;
#X obj 122 142 +~ 6;
#X obj 22 262 dac~;
#X obj 22 202 +~;
#X obj 22 232 *~ 0.1;
#X obj 122 22 inlet~;
#X obj 22 22 inlet~;
#X obj 172 52 sig~;
#X msg 172 22 0.05;
#X obj 122 82 osc~;
#X obj 72 52 sig~;
#X msg 72 22 200;
#X obj 22 82 phasor~;
#X connect 1 0 0 0;
#X connect 2 0 7 1;
#X connect 3 0 2 2;
#X connect 4 0 5 0;
#X connect 5 0 2 1;
#X connect 7 0 8 0;
#X connect 8 0 6 0;
#X connect 8 0 6 1;
#X connect 9 0 13 0;
#X connect 10 0 16 0;
#X connect 11 0 13 0;
#X connect 12 0 11 0;
#X connect 13 0 4 0;
#X connect 14 0 16 0;
#X connect 15 0 14 0;
#X connect 16 0 7 0;
#X connect 16 0 2 0;
