#N canvas 415 247 450 300 10;
#X obj 22 52 osc~ 300;
#X obj 22 128 dac~;
#X obj 22 90 mirror~;
#X msg 95 58 \; pd dsp \$1;
#X obj 95 22 tgl 15 0 empty empty empty 17 7 0 10 -262144 -1 -1 0 1
;
#X obj 22 22 inlet~;
#X connect 0 0 2 0;
#X connect 2 0 1 0;
#X connect 2 0 1 1;
#X connect 4 0 3 0;
