#N canvas 361 248 558 298 10;
#X msg 12 252 \; pd dsp \$1;
#X obj 12 12 tgl 15 0 empty empty empty 17 7 0 10 -262144 -1 -1 0 1
;
#X obj 42 222 dac~;
#X obj 42 192 *~ 0.4;
#X obj 42 132 retroseq~;
#X msg 222 32 tempo \$1;
#X obj 42 12 bng 15 250 50 0 empty empty empty 17 7 0 10 -262144 -1
-1;
#X msg 42 42 freqlist 440 550 660;
#X msg 42 62 durlist 250 125 125;
#X msg 52 82 440 250 550 125 660 125;
#X obj 42 152 phasor~;
#X obj 42 172 expr~ ($v1*2.0-1.0)*$v2;
#N canvas 638 361 558 298 unpacked_line~ 0;
#X obj 12 200 pack f f;
#X obj 72 200 pack f f;
#X obj 142 200 pack f f;
#X obj 142 180 pipe;
#X obj 172 180 pipe;
#X obj 212 200 pack f f;
#X obj 212 180 pipe;
#X obj 242 180 pipe;
#X obj 282 200 pack f f;
#X obj 282 180 pipe;
#X obj 312 180 pipe;
#X obj 12 230 line~;
#X obj 12 260 outlet~;
#X obj 32 12 inlet;
#X obj 220 259 print~;
#X obj 72 180 pipe;
#X obj 102 180 pipe;
#X msg 32 42 \$1 \$2 \$3 \$4 \$5 \$6 \$7 \$8 \$9 \$10 \$4 \$6 \$8 \$10
;
#X obj 32 72 unpack f f f f f f f f f f f f f f;
#X obj 272 120 +;
#X obj 302 120 +;
#X obj 332 120 +;
#X connect 0 0 11 0;
#X connect 1 0 11 0;
#X connect 2 0 11 0;
#X connect 3 0 2 0;
#X connect 4 0 2 1;
#X connect 5 0 11 0;
#X connect 6 0 5 0;
#X connect 7 0 5 1;
#X connect 8 0 11 0;
#X connect 9 0 8 0;
#X connect 10 0 8 1;
#X connect 11 0 12 0;
#X connect 11 0 14 0;
#X connect 13 0 17 0;
#X connect 15 0 1 0;
#X connect 16 0 1 1;
#X connect 17 0 18 0;
#X connect 18 0 0 0;
#X connect 18 1 0 1;
#X connect 18 2 15 0;
#X connect 18 3 16 0;
#X connect 18 4 3 0;
#X connect 18 5 4 0;
#X connect 18 6 6 0;
#X connect 18 7 7 0;
#X connect 18 8 9 0;
#X connect 18 9 10 0;
#X connect 18 10 19 0;
#X connect 18 10 16 1;
#X connect 18 10 15 1;
#X connect 18 11 19 1;
#X connect 18 12 20 1;
#X connect 18 13 21 1;
#X connect 19 0 20 0;
#X connect 19 0 4 1;
#X connect 19 0 3 1;
#X connect 20 0 21 0;
#X connect 20 0 7 1;
#X connect 20 0 6 1;
#X connect 21 0 10 1;
#X connect 21 0 9 1;
#X restore 92 152 pd unpacked_line~;
#X msg 292 32 elastic_sustain \$1;
#X msg 422 32 sustain_amplitude \$1;
#X msg 422 72 adsr 10 10 10 10;
#X msg 422 92 adsr 250 150 100 100;
#X obj 292 12 tgl 15 0 empty empty empty 17 7 0 10 -262144 -1 -1 0
1;
#X msg 452 12 0.2;
#X msg 482 12 0.7;
#X msg 222 12 15;
#X msg 252 12 120;
#X msg 422 12 0;
#X obj 202 152 bng 15 250 50 0 empty empty empty 17 7 0 10 -262144
-1 -1;
#X connect 1 0 0 0;
#X connect 3 0 2 1;
#X connect 3 0 2 0;
#X connect 4 0 10 0;
#X connect 4 1 12 0;
#X connect 4 2 23 0;
#X connect 5 0 4 0;
#X connect 6 0 7 0;
#X connect 6 0 8 0;
#X connect 8 0 4 0;
#X connect 9 0 4 0;
#X connect 10 0 11 0;
#X connect 11 0 3 0;
#X connect 12 0 11 1;
#X connect 13 0 4 0;
#X connect 14 0 4 0;
#X connect 15 0 4 0;
#X connect 16 0 4 0;
#X connect 17 0 13 0;
#X connect 18 0 14 0;
#X connect 19 0 14 0;
#X connect 20 0 5 0;
#X connect 21 0 5 0;
#X connect 22 0 14 0;
