#N canvas 720 22 720 851 10;
#X msg 12 482 \; pd dsp \$1;
#X obj 12 12 tgl 15 0 empty empty empty 17 7 0 10 -262144 -1 -1 0 1
;
#X msg 42 182 tempo \$1;
#X msg 62 52 freqlist 440 550 660;
#X msg 72 72 durlist 250 125 125;
#X msg 52 32 440 250 550 125 660 125;
#X msg 212 262 elastic_sustain \$1;
#X msg 42 262 sustain_amplitude \$1;
#X msg 212 162 adsr 10 10 10 10;
#X msg 222 182 adsr 250 150 100 100;
#X obj 212 242 tgl 15 0 empty empty empty 17 7 0 10 -262144 -1 -1 0
1;
#X msg 82 242 0.2;
#X msg 122 242 0.7;
#X msg 122 162 120;
#X msg 42 242 0;
#X msg 42 162 15;
#X msg 82 162 60;
#X msg 42 12 220 25 330 50 440 75 550 100 660 125 770 150 880 175 990
200;
#X msg 82 92 shuffle;
#X msg 152 92 shuffle_freqs;
#X msg 262 92 shuffle_durs;
#X obj 42 452 dac~;
#X obj 42 422 *~ 0.4;
#X obj 132 352 retroseq~;
#N canvas 638 361 558 298 unpacked_line~ 0;
#X obj 12 230 line~;
#X obj 12 260 outlet~;
#X obj 32 12 inlet;
#X msg 32 42 \$1 \$2 \$3 \$4 \$5 \$6 \$7 \$8 \$9 \$10 \$4 \$6 \$8 \$10
;
#X obj 32 72 unpack f f f f f f f f f f f f f f;
#X obj 12 200 pack f f;
#X obj 72 200 pack f f;
#X obj 142 200 pack f f;
#X obj 142 180 pipe;
#X obj 172 180 pipe;
#X obj 212 200 pack f f;
#X obj 212 180 pipe;
#X obj 242 180 pipe;
#X obj 282 200 pack f f;
#X obj 282 180 pipe;
#X obj 312 180 pipe;
#X obj 72 180 pipe;
#X obj 102 180 pipe;
#X obj 272 120 +;
#X obj 332 120 +;
#X obj 302 120 +;
#X connect 0 0 1 0;
#X connect 2 0 3 0;
#X connect 3 0 4 0;
#X connect 4 0 5 0;
#X connect 4 1 5 1;
#X connect 4 2 16 0;
#X connect 4 3 17 0;
#X connect 4 4 8 0;
#X connect 4 5 9 0;
#X connect 4 6 11 0;
#X connect 4 7 12 0;
#X connect 4 8 14 0;
#X connect 4 9 15 0;
#X connect 4 10 16 1;
#X connect 4 10 17 1;
#X connect 4 10 18 0;
#X connect 4 11 18 1;
#X connect 4 12 20 1;
#X connect 4 13 19 1;
#X connect 5 0 0 0;
#X connect 6 0 0 0;
#X connect 7 0 0 0;
#X connect 8 0 7 0;
#X connect 9 0 7 1;
#X connect 10 0 0 0;
#X connect 11 0 10 0;
#X connect 12 0 10 1;
#X connect 13 0 0 0;
#X connect 14 0 13 0;
#X connect 15 0 13 1;
#X connect 16 0 6 0;
#X connect 17 0 6 1;
#X connect 18 0 20 0;
#X connect 18 0 8 1;
#X connect 18 0 9 1;
#X connect 19 0 14 1;
#X connect 19 0 15 1;
#X connect 20 0 19 0;
#X connect 20 0 11 1;
#X connect 20 0 12 1;
#X restore 102 382 pd unpacked_line~;
#X obj 232 382 bng 15 250 50 0 empty empty empty 17 7 0 10 -262144
-1 -1;
#X obj 42 382 phasor~;
#X obj 42 402 expr~ ($v1*2.0-1.0)*$v2;
#X obj 132 332 r to_retroseq;
#X obj 42 122 s to_retroseq;
#X obj 42 202 s to_retroseq;
#X obj 212 282 s to_retroseq;
#X obj 42 282 s to_retroseq;
#X obj 212 202 s to_retroseq;
#X obj 252 382 print f;
#X obj 312 382 print d;
#X obj 392 162 tgl 15 0 empty empty empty 17 7 0 10 -262144 -1 -1 0
1;
#X obj 392 202 s to_retroseq;
#X obj 422 162 bng 15 250 50 0 empty empty empty 17 7 0 10 -262144
-1 -1;
#X msg 392 182 manual_override \$1;
#X obj 392 242 tgl 15 0 empty empty empty 17 7 0 10 -262144 -1 -1 0
1;
#X obj 392 282 s to_retroseq;
#X msg 392 262 play_backwards \$1;
#X connect 1 0 0 0;
#X connect 1 0 17 0;
#X connect 2 0 30 0;
#X connect 3 0 29 0;
#X connect 4 0 29 0;
#X connect 5 0 29 0;
#X connect 6 0 31 0;
#X connect 7 0 32 0;
#X connect 8 0 33 0;
#X connect 9 0 33 0;
#X connect 10 0 6 0;
#X connect 11 0 7 0;
#X connect 12 0 7 0;
#X connect 13 0 2 0;
#X connect 14 0 7 0;
#X connect 15 0 2 0;
#X connect 16 0 2 0;
#X connect 17 0 29 0;
#X connect 18 0 29 0;
#X connect 19 0 29 0;
#X connect 20 0 29 0;
#X connect 22 0 21 1;
#X connect 22 0 21 0;
#X connect 23 0 26 0;
#X connect 23 1 24 0;
#X connect 23 2 25 0;
#X connect 23 3 34 0;
#X connect 23 4 35 0;
#X connect 24 0 27 1;
#X connect 26 0 27 0;
#X connect 27 0 22 0;
#X connect 28 0 23 0;
#X connect 36 0 39 0;
#X connect 38 0 37 0;
#X connect 39 0 37 0;
#X connect 40 0 42 0;
#X connect 42 0 41 0;
