#N canvas 0 22 720 851 10;
#X obj 22 112 dynstoch;
#X obj 22 22 adc~ 3 4 5;
#X text 110 22 << Analog IN 0 \, 1 \, and 2;
#N canvas 415 247 450 300 snap 0;
#X obj 22 22 inlet~;
#X obj 72 22 loadbang;
#X obj 22 82 snapshot~;
#X obj 22 112 outlet;
#X obj 72 52 metro 50;
#X connect 0 0 2 0;
#X connect 1 0 4 0;
#X connect 2 0 3 0;
#X connect 4 0 2 0;
#X restore 22 82 pd snap;
#N canvas 415 247 450 300 snap 0;
#X obj 22 22 inlet~;
#X obj 72 22 loadbang;
#X obj 22 82 snapshot~;
#X obj 22 112 outlet;
#X obj 72 52 metro 50;
#X connect 0 0 2 0;
#X connect 1 0 4 0;
#X connect 2 0 3 0;
#X connect 4 0 2 0;
#X restore 82 82 pd snap;
#N canvas 415 247 450 300 snap 0;
#X obj 22 22 inlet~;
#X obj 72 22 loadbang;
#X obj 22 82 snapshot~;
#X obj 22 112 outlet;
#X obj 72 52 metro 50;
#X connect 0 0 2 0;
#X connect 1 0 4 0;
#X connect 2 0 3 0;
#X connect 4 0 2 0;
#X restore 142 82 pd snap;
#X obj 22 52 *~ 1000;
#X obj 82 52 *~ 1;
#X obj 142 52 *~ 1;
#X connect 1 0 6 0;
#X connect 1 1 7 0;
#X connect 1 2 8 0;
#X connect 3 0 0 0;
#X connect 4 0 0 1;
#X connect 5 0 0 2;
#X connect 6 0 3 0;
#X connect 7 0 4 0;
#X connect 8 0 5 0;
