#N canvas 415 247 450 300 10;
#X msg 365 58 \; pd dsp \$1;
#X obj 365 22 tgl 15 0 empty empty empty 17 7 0 10 -262144 -1 -1 0
1;
#X obj 22 22 noise~;
#X obj 22 78 *~ 0.4;
#X obj 22 108 dac~;
#X obj 22 50 dynstoch~;
#X connect 1 0 0 0;
#X connect 2 0 5 0;
#X connect 3 0 4 0;
#X connect 3 0 4 1;
#X connect 5 0 3 0;
