#N canvas 720 22 720 851 10;
#X msg 385 58 \; pd dsp \$1;
#X obj 385 22 tgl 15 0 empty empty empty 17 7 0 10 -262144 -1 -1 0
1;
#X obj 22 158 dac~;
#X obj 22 120 dynstoch~;
#X msg 202 70 ampdev \$1;
#X floatatom 202 50 5 0 2 0 - - -, f 5;
#X floatatom 112 50 5 0 10 0 - - -, f 5;
#X msg 112 70 durdev \$1;
#X msg 202 100 freqrange 1200 1500;
#X msg 202 120 freqrange 50 8000;
#N canvas 415 247 450 300 snap 0;
#X obj 72 112 snapshot~;
#X obj 72 22 loadbang;
#X msg 72 52 1;
#X obj 22 22 inlet~;
#X obj 72 142 outlet;
#X obj 72 82 metro 150;
#X connect 0 0 4 0;
#X connect 1 0 2 0;
#X connect 2 0 5 0;
#X connect 3 0 0 0;
#X connect 5 0 0 0;
#X restore 172 158 pd snap;
#X floatatom 232 158 5 0 0 0 - - -, f 5;
#N canvas 0 22 450 300 (subpatch) 0;
#X array display 1024 float 0;
#X coords 0 1 1023 -1 400 80 2 0 0;
#X restore 22 200 graph;
#N canvas 415 247 450 300 showwave 0;
#X obj 72 22 loadbang;
#X msg 72 42 1;
#X obj 72 62 metro 150;
#X obj 22 92 tabwrite~ display;
#X obj 22 22 inlet~;
#X connect 0 0 1 0;
#X connect 1 0 2 0;
#X connect 2 0 3 0;
#X connect 4 0 3 0;
#X restore 82 158 pd showwave;
#X floatatom 22 50 5 0 10 0 - - -, f 5;
#X msg 22 70 setfreq \$1;
#X obj 202 20 inlet;
#X obj 112 20 inlet;
#X obj 22 20 inlet;
#X connect 1 0 0 0;
#X connect 3 0 13 0;
#X connect 3 0 2 0;
#X connect 3 0 2 1;
#X connect 3 1 10 0;
#X connect 4 0 3 0;
#X connect 5 0 4 0;
#X connect 6 0 7 0;
#X connect 7 0 3 0;
#X connect 8 0 3 0;
#X connect 9 0 3 0;
#X connect 10 0 11 0;
#X connect 14 0 15 0;
#X connect 15 0 3 0;
#X connect 16 0 5 0;
#X connect 17 0 6 0;
#X connect 18 0 14 0;
