#N canvas 0 22 720 851 10;
#X obj 6 6 inlet~;
#X obj 6 66 rfft~;
#X obj 6 186 rifft~;
#X obj 6 276 outlet~;
#X obj 6 96 cartopol~;
#X obj 6 156 poltocar~;
#X obj 76 6 inlet;
#X obj 126 6 inlet;
#X obj 6 126 cleaner~ 0.5 0.1;
#X obj 296 6 loadbang;
#X msg 376 66 set \$1 \$2;
#X obj 376 96 block~;
#X obj 296 96 unpack f f;
#X floatatom 296 156 15 0 0 0 - - -, f 15;
#X text 342 37 fftsize overlap;
#X obj 6 216 *~ 0;
#X obj 296 126 expr 2/$f1;
#X obj 6 246 windowvec~;
#X obj 6 36 windowvec~;
#X msg 296 36 256 8;
#X connect 0 0 18 0;
#X connect 1 0 4 0;
#X connect 1 1 4 1;
#X connect 2 0 15 0;
#X connect 4 0 8 0;
#X connect 4 1 5 1;
#X connect 5 0 2 0;
#X connect 5 1 2 1;
#X connect 6 0 8 1;
#X connect 7 0 8 2;
#X connect 8 0 5 0;
#X connect 9 0 19 0;
#X connect 10 0 11 0;
#X connect 12 0 16 0;
#X connect 15 0 17 0;
#X connect 16 0 13 0;
#X connect 16 0 15 1;
#X connect 17 0 3 0;
#X connect 18 0 1 0;
#X connect 19 0 12 0;
#X connect 19 0 10 0;
