#N canvas 640 22 640 751 10;
#X obj 12 12 noise~;
#X obj 62 12 osc~ 250;
#X obj 12 122 *~ 0.1;
#X obj 12 42 *~ 0.2;
#X obj 135 12 hsl 128 15 0 1 0 0 empty empty empty -2 -8 0 10 -262144
-1 -1 0 1;
#X obj 12 152 block.cleaner 1024 8;
#X obj 12 182 dac~;
#X obj 135 42 hsl 128 15 0 1 0 0 empty empty empty -2 -8 0 10 -262144
-1 -1 0 1;
#X obj 135 72 hsl 128 15 0 1 0 0 empty empty empty -2 -8 0 10 -262144
-1 -1 0 1;
#X text 275 11 Signal gain;
#X text 275 41 Threshold;
#X text 275 71 Attenuation;
#X obj 192 132 tgl 15 0 empty empty empty 17 7 0 10 -262144 -1 -1 0
1;
#X msg 192 162 \; pd dsp \$1;
#X connect 0 0 3 0;
#X connect 1 0 2 0;
#X connect 2 0 5 0;
#X connect 3 0 2 0;
#X connect 4 0 2 1;
#X connect 5 0 6 0;
#X connect 5 0 6 1;
#X connect 7 0 5 1;
#X connect 8 0 5 2;
#X connect 12 0 13 0;
