#N canvas 720 22 720 851 10;
#X obj 22 158 dac~;
#X msg 245 58 \; pd dsp \$1;
#X obj 245 22 tgl 15 0 empty empty empty 17 7 0 10 -262144 -1 -1 1
1;
#X obj 22 120 multy~;
#X obj 22 22 inlet~;
#X obj 72 52 sig~;
#X obj 22 82 osc~;
#X obj 132 22 inlet~;
#X obj 182 52 sig~;
#X obj 132 82 osc~;
#X msg 72 22 300;
#X msg 182 22 5;
#X connect 2 0 1 0;
#X connect 3 0 0 0;
#X connect 3 0 0 1;
#X connect 4 0 6 0;
#X connect 5 0 6 0;
#X connect 6 0 3 0;
#X connect 7 0 9 0;
#X connect 8 0 9 0;
#X connect 9 0 3 1;
#X connect 10 0 5 0;
#X connect 11 0 8 0;
