#N canvas 361 248 558 298 10;
#X msg 12 188 \; pd dsp \$1;
#X obj 12 42 tgl 15 0 empty empty empty 17 7 0 10 -262144 -1 -1 0 1
;
#X obj 42 162 dac~;
#X msg 82 42 sine;
#X msg 122 42 sawtooth;
#X msg 182 42 triangle;
#X msg 242 42 square;
#X msg 292 42 pulse;
#X obj 42 132 *~ 0.4;
#X msg 82 72 0 1 0;
#X msg 142 72 0.5 0.5;
#X msg 202 72 0 0 1 0 0 0 0 0 0 0 0 1;
#X msg 42 42 300;
#X obj 42 12 loadbang;
#X msg 442 42 fadetime 0;
#X msg 442 62 fadetime 500;
#X msg 442 82 fadetime 1000;
#X msg 362 42 fadetype 0;
#X msg 362 62 fadetype 1;
#X msg 362 82 fadetype 2;
#X obj 42 102 oscil~ 440 8192 sine 10;
#X connect 1 0 0 0;
#X connect 3 0 20 0;
#X connect 4 0 20 0;
#X connect 5 0 20 0;
#X connect 6 0 20 0;
#X connect 7 0 20 0;
#X connect 8 0 2 1;
#X connect 8 0 2 0;
#X connect 9 0 20 0;
#X connect 10 0 20 0;
#X connect 11 0 20 0;
#X connect 12 0 20 0;
#X connect 13 0 12 0;
#X connect 14 0 20 0;
#X connect 15 0 20 0;
#X connect 16 0 20 0;
#X connect 17 0 20 0;
#X connect 18 0 20 0;
#X connect 19 0 20 0;
#X connect 20 0 8 0;
