#N canvas 415 247 450 300 10;
#X msg 95 58 \; pd dsp \$1;
#X obj 95 22 tgl 15 0 empty empty empty 17 7 0 10 -262144 -1 -1 0 1
;
#X floatatom 22 22 5 0 0 0 - - -, f 5;
#X obj 22 82 *~ 0.1;
#X obj 22 112 dac~;
#X obj 22 52 oscil~ 440;
#X connect 1 0 0 0;
#X connect 2 0 5 0;
#X connect 3 0 4 1;
#X connect 3 0 4 0;
#X connect 5 0 3 0;
