#N canvas 0 22 720 851 10;
#X obj 12 32 inlet~;
#X obj 12 92 rfft~;
#X obj 12 152 rifft~;
#X obj 12 242 outlet~;
#X obj 152 212 snapshot~;
#X obj 152 182 metro 50;
#X obj 152 122 loadbang;
#X msg 152 152 1;
#X obj 132 32 inlet;
#X obj 202 32 inlet;
#X obj 272 32 inlet;
#X obj 272 102 loadbang;
#X obj 152 242 outlet;
#X text 78 16 sample trigger;
#X text 202 16 speed;
#X text 254 16 position;
#X text 164 258 sync;
#X obj 12 62 windowvec~;
#X obj 12 212 windowvec~;
#X msg 352 162 set \$1 \$2;
#X obj 352 192 block~;
#X obj 272 192 unpack f f;
#X obj 272 222 expr 2/($f1 * ($f2-1));
#X floatatom 272 252 15 0 0 0 - - -, f 15;
#X text 318 133 fftsize overlap;
#X obj 12 122 scrubber~ 5000;
#X obj 12 182 *~ 0;
#X msg 272 132 256 8;
#X connect 0 0 17 0;
#X connect 1 0 25 0;
#X connect 1 1 25 1;
#X connect 2 0 26 0;
#X connect 4 0 12 0;
#X connect 5 0 4 0;
#X connect 6 0 7 0;
#X connect 7 0 5 0;
#X connect 8 0 25 0;
#X connect 9 0 25 2;
#X connect 10 0 25 3;
#X connect 11 0 27 0;
#X connect 17 0 1 0;
#X connect 18 0 3 0;
#X connect 19 0 20 0;
#X connect 21 0 22 0;
#X connect 21 1 22 1;
#X connect 22 0 23 0;
#X connect 23 0 26 1;
#X connect 25 0 2 0;
#X connect 25 1 2 1;
#X connect 25 2 4 0;
#X connect 26 0 18 0;
#X connect 27 0 21 0;
#X connect 27 0 19 0;
