#N canvas 640 23 640 751 10;
#X obj 12 222 dac~;
#X obj 82 12 tgl 15 0 empty empty empty 17 7 0 10 -262144 -1 -1 0 1
;
#X msg 142 62 \; pd dsp \$1;
#X obj 12 102 openpanel;
#X msg 12 132 open \$1;
#X obj 12 162 readsf~;
#X obj 145 132 hsl 128 15 -2 2 0 0 empty empty empty -2 -8 0 10 -262144
-1 -1 9525 0;
#X obj 145 222 hsl 128 15 0 1 0 0 empty empty empty -2 -8 0 10 -262144
-1 -1 0 1;
#X obj 82 102 sel 1;
#X msg 82 132 sample;
#X msg 142 102 1;
#X msg 182 102 0;
#X obj 145 162 hsl 128 15 0 1 0 0 empty empty empty -2 -8 0 10 -262144
-1 -1 0 0;
#X obj 12 12 bng 15 250 50 0 empty empty empty 17 7 0 10 -262144 -1
-1;
#X text 283 131 Speed;
#X text 283 161 Position;
#X text 283 221 Phase;
#X obj 82 32 t f f f f;
#X obj 12 192 block.scrubber;
#X connect 1 0 17 0;
#X connect 3 0 4 0;
#X connect 4 0 5 0;
#X connect 5 0 18 0;
#X connect 6 0 18 2;
#X connect 8 0 9 0;
#X connect 9 0 18 1;
#X connect 10 0 6 0;
#X connect 11 0 6 0;
#X connect 12 0 18 3;
#X connect 13 0 3 0;
#X connect 17 0 5 0;
#X connect 17 1 8 0;
#X connect 17 2 10 0;
#X connect 17 3 2 0;
#X connect 18 0 0 0;
#X connect 18 0 0 1;
#X connect 18 1 7 0;
